<?xml version="1.0" encoding="UTF-8" standalone="no"?>
<!DOCTYPE svg PUBLIC "-//W3C//DTD SVG 1.1//EN"
 "http://www.w3.org/Graphics/SVG/1.1/DTD/svg11.dtd">
<!-- Generated by graphviz version 12.2.1 (0)
 -->
<!-- Pages: 1 -->
<svg width="290pt" height="223pt"
 viewBox="0.00 0.00 289.99 222.50" xmlns="http://www.w3.org/2000/svg" xmlns:xlink="http://www.w3.org/1999/xlink">
<g id="graph0" class="graph" transform="scale(1 1) rotate(0) translate(4 218.5)">
<polygon fill="white" stroke="none" points="-4,4 -4,-218.5 285.99,-218.5 285.99,4 -4,4"/>
<!-- 0 -->
<g id="node1" class="node">
<title>0</title>
<ellipse fill="none" stroke="black" cx="61.2" cy="-196.5" rx="61.2" ry="18"/>
<text text-anchor="middle" x="61.2" y="-191.82" font-family="Times,serif" font-size="14.00">create&#45;foo</text>
</g>
<!-- 2 -->
<g id="node3" class="node">
<title>2</title>
<ellipse fill="none" stroke="black" cx="135.2" cy="-107.25" rx="56.47" ry="18"/>
<text text-anchor="middle" x="135.2" y="-102.58" font-family="Times,serif" font-size="14.00">stat&#45;both</text>
</g>
<!-- 0&#45;&gt;2 -->
<g id="edge1" class="edge">
<title>0&#45;&gt;2</title>
<path fill="none" stroke="black" d="M75.47,-178.68C86.32,-165.88 101.43,-148.07 113.74,-133.55"/>
<polygon fill="black" stroke="black" points="116.2,-136.07 120,-126.18 110.86,-131.54 116.2,-136.07"/>
<text text-anchor="middle" x="109.33" y="-147.2" font-family="Times,serif" font-size="14.00">1</text>
</g>
<!-- 3 -->
<g id="node4" class="node">
<title>3</title>
<ellipse fill="none" stroke="black" cx="61.2" cy="-18" rx="60.68" ry="18"/>
<text text-anchor="middle" x="61.2" y="-13.32" font-family="Times,serif" font-size="14.00">delete&#45;foo</text>
</g>
<!-- 0&#45;&gt;3 -->
<g id="edge3" class="edge">
<title>0&#45;&gt;3</title>
<path fill="none" stroke="black" d="M61.2,-178.26C61.2,-147.94 61.2,-84.81 61.2,-47.78"/>
<polygon fill="black" stroke="black" points="64.7,-47.83 61.2,-37.83 57.7,-47.83 64.7,-47.83"/>
<text text-anchor="middle" x="65.7" y="-102.58" font-family="Times,serif" font-size="14.00">1</text>
</g>
<!-- 1 -->
<g id="node2" class="node">
<title>1</title>
<ellipse fill="none" stroke="black" cx="219.2" cy="-196.5" rx="62.78" ry="18"/>
<text text-anchor="middle" x="219.2" y="-191.82" font-family="Times,serif" font-size="14.00">create&#45;bar</text>
</g>
<!-- 1&#45;&gt;2 -->
<g id="edge2" class="edge">
<title>1&#45;&gt;2</title>
<path fill="none" stroke="black" d="M203.01,-178.68C190.49,-165.68 172.99,-147.5 158.9,-132.87"/>
<polygon fill="black" stroke="black" points="161.57,-130.59 152.12,-125.82 156.53,-135.45 161.57,-130.59"/>
<text text-anchor="middle" x="189.23" y="-147.2" font-family="Times,serif" font-size="14.00">1</text>
</g>
<!-- 4 -->
<g id="node5" class="node">
<title>4</title>
<ellipse fill="none" stroke="black" cx="219.2" cy="-18" rx="62.26" ry="18"/>
<text text-anchor="middle" x="219.2" y="-13.32" font-family="Times,serif" font-size="14.00">delete&#45;bar</text>
</g>
<!-- 1&#45;&gt;4 -->
<g id="edge5" class="edge">
<title>1&#45;&gt;4</title>
<path fill="none" stroke="black" d="M219.2,-178.26C219.2,-147.94 219.2,-84.81 219.2,-47.78"/>
<polygon fill="black" stroke="black" points="222.7,-47.83 219.2,-37.83 215.7,-47.83 222.7,-47.83"/>
<text text-anchor="middle" x="223.7" y="-102.58" font-family="Times,serif" font-size="14.00">1</text>
</g>
<!-- 2&#45;&gt;3 -->
<g id="edge4" class="edge">
<title>2&#45;&gt;3</title>
<path fill="none" stroke="black" d="M120.94,-89.43C110.08,-76.63 94.97,-58.82 82.67,-44.3"/>
<polygon fill="black" stroke="black" points="85.54,-42.29 76.41,-36.93 80.21,-46.82 85.54,-42.29"/>
<text text-anchor="middle" x="109.33" y="-57.95" font-family="Times,serif" font-size="14.00">1</text>
</g>
<!-- 2&#45;&gt;4 -->
<g id="edge6" class="edge">
<title>2&#45;&gt;4</title>
<path fill="none" stroke="black" d="M151,-89.84C163.48,-76.88 181.09,-58.59 195.29,-43.84"/>
<polygon fill="black" stroke="black" points="197.73,-46.36 202.14,-36.72 192.68,-41.5 197.73,-46.36"/>
<text text-anchor="middle" x="189.23" y="-57.95" font-family="Times,serif" font-size="14.00">1</text>
</g>
</g>
</svg>
