<?xml version="1.0" encoding="UTF-8" standalone="no"?>
<!DOCTYPE svg PUBLIC "-//W3C//DTD SVG 1.1//EN"
 "http://www.w3.org/Graphics/SVG/1.1/DTD/svg11.dtd">
<!-- Generated by graphviz version 12.2.0 (0)
 -->
<!-- Pages: 1 -->
<svg width="241pt" height="223pt"
 viewBox="0.00 0.00 240.89 222.50" xmlns="http://www.w3.org/2000/svg" xmlns:xlink="http://www.w3.org/1999/xlink">
<g id="graph0" class="graph" transform="scale(1 1) rotate(0) translate(4 218.5)">
<polygon fill="white" stroke="none" points="-4,4 -4,-218.5 236.89,-218.5 236.89,4 -4,4"/>
<!-- 0 -->
<g id="node1" class="node">
<title>0</title>
<ellipse fill="none" stroke="black" cx="116.45" cy="-196.5" rx="116.45" ry="18"/>
<text text-anchor="middle" x="116.45" y="-191.82" font-family="Times,serif" font-size="14.00">group start: versions</text>
</g>
<!-- 2 -->
<g id="node3" class="node">
<title>2</title>
<ellipse fill="none" stroke="black" cx="116.45" cy="-107.25" rx="66.47" ry="18"/>
<text text-anchor="middle" x="116.45" y="-102.58" font-family="Times,serif" font-size="14.00">task: cargo</text>
</g>
<!-- 0&#45;&gt;2 -->
<g id="edge1" class="edge">
<title>0&#45;&gt;2</title>
<path fill="none" stroke="black" d="M116.45,-178.26C116.45,-166.43 116.45,-150.45 116.45,-136.75"/>
<polygon fill="black" stroke="black" points="119.95,-136.97 116.45,-126.97 112.95,-136.97 119.95,-136.97"/>
<text text-anchor="middle" x="120.95" y="-147.2" font-family="Times,serif" font-size="14.00">1</text>
</g>
<!-- 1 -->
<g id="node2" class="node">
<title>1</title>
<ellipse fill="none" stroke="black" cx="116.45" cy="-18" rx="110.66" ry="18"/>
<text text-anchor="middle" x="116.45" y="-13.32" font-family="Times,serif" font-size="14.00">group end: versions</text>
</g>
<!-- 2&#45;&gt;1 -->
<g id="edge2" class="edge">
<title>2&#45;&gt;1</title>
<path fill="none" stroke="black" d="M116.45,-89.01C116.45,-77.18 116.45,-61.2 116.45,-47.5"/>
<polygon fill="black" stroke="black" points="119.95,-47.72 116.45,-37.72 112.95,-47.72 119.95,-47.72"/>
<text text-anchor="middle" x="120.95" y="-57.95" font-family="Times,serif" font-size="14.00">1</text>
</g>
</g>
</svg>
